<?xml version="1.0" encoding="utf-8"?>
<svg viewBox="0 0 75.625 65.755" xmlns="http://www.w3.org/2000/svg">
  <path d="M 46.03 19.213 C 42.56 19.213 39.665 20.463 37.345 22.965 C 35.005 20.463 32.1 19.213 28.629 19.213 L 28.538 19.213 C 25.169 19.213 22.334 20.393 20.034 22.755 C 17.713 25.095 16.553 27.969 16.553 31.379 L 16.553 45.301 C 16.553 46.208 16.876 46.975 17.523 47.601 C 18.148 48.247 18.914 48.57 19.822 48.57 C 20.729 48.57 21.496 48.247 22.122 47.602 C 22.768 46.976 23.091 46.209 23.091 45.301 L 23.091 31.379 C 23.091 29.744 23.606 28.402 24.635 27.353 C 25.664 26.284 26.965 25.75 28.538 25.75 L 28.629 25.75 C 30.203 25.75 31.504 26.284 32.532 27.353 C 33.561 28.402 34.076 29.744 34.076 31.379 L 34.076 45.301 C 34.076 46.208 34.389 46.975 35.015 47.601 C 35.66 48.247 36.436 48.57 37.345 48.57 C 38.233 48.57 39 48.247 39.645 47.602 C 40.27 46.976 40.583 46.209 40.583 45.301 L 40.583 31.379 C 40.583 29.744 41.098 28.402 42.127 27.353 C 43.156 26.284 44.457 25.75 46.03 25.75 L 46.122 25.75 C 47.695 25.75 48.997 26.284 50.026 27.353 C 51.055 28.402 51.57 29.744 51.57 31.379 L 51.57 45.301 C 51.57 46.208 51.893 46.975 52.538 47.601 C 53.163 48.247 53.93 48.57 54.838 48.57 C 55.745 48.57 56.512 48.247 57.138 47.602 C 57.784 46.976 58.107 46.209 58.107 45.301 L 58.107 31.379 C 58.107 27.97 56.947 25.095 54.627 22.755 C 52.326 20.393 49.491 19.213 46.122 19.213 L 46.03 19.213 Z" style="fill:#0278AE;stroke:#0278AE;stroke-width:1.42875;stroke-linecap:round;stroke-linejoin:round"/>
  <path d="M 12.131 57.284 C 12.987 57.284 13.716 57.546 14.321 58.068 C 14.975 58.589 15.302 59.22 15.302 59.96 C 15.302 60.699 14.975 61.33 14.321 61.851 C 13.716 62.373 12.987 62.635 12.131 62.635 L 4.023 62.635 C 3.167 62.635 2.413 62.374 1.758 61.851 C 1.154 61.33 0.852 60.699 0.852 59.96 L 0.852 5.702 C 0.852 4.963 1.154 4.354 1.758 3.875 C 2.402 3.4 3.202 3.147 4.023 3.158 L 12.131 3.158 C 12.987 3.158 13.716 3.418 14.321 3.941 C 14.975 4.463 15.302 5.094 15.302 5.833 C 15.302 6.572 14.975 7.203 14.321 7.725 C 13.716 8.246 12.987 8.507 12.131 8.507 L 7.949 8.507 C 7.345 8.507 7.043 8.747 7.043 9.225 L 7.043 56.501 C 7.043 57.024 7.345 57.284 7.949 57.284 L 12.131 57.284 Z M 63.346 57.284 C 62.491 57.284 61.761 57.546 61.156 58.068 C 60.503 58.589 60.176 59.22 60.176 59.96 C 60.176 60.699 60.503 61.33 61.156 61.851 C 61.761 62.373 62.491 62.635 63.346 62.635 L 71.454 62.635 C 72.31 62.635 73.065 62.374 73.719 61.851 C 74.323 61.33 74.625 60.699 74.625 59.96 L 74.625 5.702 C 74.625 4.963 74.323 4.354 73.719 3.875 C 73.075 3.4 72.275 3.147 71.454 3.158 L 63.346 3.158 C 62.491 3.158 61.761 3.418 61.156 3.941 C 60.503 4.463 60.176 5.094 60.176 5.833 C 60.176 6.572 60.503 7.203 61.156 7.725 C 61.761 8.246 62.491 8.507 63.346 8.507 L 67.528 8.507 C 68.132 8.507 68.434 8.747 68.434 9.225 L 68.434 56.501 C 68.434 57.024 68.132 57.284 67.528 57.284 L 63.346 57.284 Z" style="fill: rgb(81, 173, 207); stroke: rgb(81, 173, 207); stroke-width: 1.85209; stroke-dasharray: none;"/>
</svg>